<?xml version="1.0" standalone="no"?><!DOCTYPE svg PUBLIC "-//W3C//DTD SVG 1.1//EN" "http://www.w3.org/Graphics/SVG/1.1/DTD/svg11.dtd"><svg t="1502270742387" class="icon" style="" viewBox="0 0 1024 1024" version="1.1" xmlns="http://www.w3.org/2000/svg" p-id="1649" xmlns:xlink="http://www.w3.org/1999/xlink" width="200" height="200"><defs><style type="text/css"></style></defs><path d="M120.9 907.5h617.4c0-171.2-93.4-316.5-223.8-371.6 81-48.4 129.9-144.9 103.6-251-19.7-79.5-84.7-143.6-164.5-162.2-148.5-34.6-280.4 77.1-280.4 219.7 0 82.5 44.7 154 110.8 193.5C170 584.1 84.3 701.3 64.5 844.4c-4.6 33.5 22.6 63.1 56.4 63.1zM306 588l2.2-0.9c9.9-4.2 18.7-11.2 25.1-20.8 6.4-9.6 9.4-20.5 9.4-31.2v2.3c0-9.5-2.4-19.1-7.4-27.9-5-8.8-12-15.8-20.2-20.6l-2.2-1.3c-52.1-31.1-83.2-85.3-83.2-144.9 0-93.5 76-169.5 169.5-169.5s169.5 76 169.5 169.5c0 59.6-31.1 113.8-83.2 144.9l-2.2 1.3c-8.1 4.9-15.2 11.8-20.2 20.6s-7.4 18.4-7.4 27.9V535c0 10.7 3 21.6 9.4 31.2 6.4 9.6 15.2 16.6 25.1 20.8l2.2 0.9c98.1 41.4 168.3 143.3 185.3 263h-557c17-119.6 87.2-221.5 185.3-262.9z" p-id="1650"></path><path d="M788.8 593.2c64.2-41.5 103-118.7 87.2-203.8-13.6-73.2-70.5-134.2-142.5-153.1-47.1-12.4-91.9-7.1-130.6 9.8 8.1 17.1 14.5 35.1 18.1 54.2 18.5-8.9 38.9-14.3 60.8-14.3 89.6 0 159.9 83.8 136.8 177.1-8.9 35.9-34.1 65.6-65.2 85.6l10.7-6.9c-7.7 5-14.3 11.8-19 20.4-4.7 8.6-6.9 17.9-6.9 27v6.7c0 10.3 2.8 20.8 8.7 30.1 5.9 9.4 14.1 16.4 23.4 20.8l-6-2.9c74.4 35.6 126.3 113.5 139.8 206.9H681.8c2.3 18.5 3.8 37.3 3.8 56.5h217.5c34 0 61.4-30 56.3-63.6C941.9 730 878 635.8 788.8 593.2z" p-id="1651"></path></svg>