<?xml version="1.0" standalone="no"?><!DOCTYPE svg PUBLIC "-//W3C//DTD SVG 1.1//EN" "http://www.w3.org/Graphics/SVG/1.1/DTD/svg11.dtd"><svg t="1502272236987" class="icon" style="" viewBox="0 0 1024 1024" version="1.1" xmlns="http://www.w3.org/2000/svg" p-id="2623" xmlns:xlink="http://www.w3.org/1999/xlink" width="200" height="200"><defs><style type="text/css"></style></defs><path d="M938.561096 956.671569c-13.127995-61.795415-38.123272-166.30056-38.123272-166.30056s-13.354146-64.803935-34.505885-86.895069c-36.536125-38.151925-263.491113-70.272483-272.418436-138.672316-2.426259-18.584264-3.162016-51.139727-2.474354-59.066257 18.603707-16.780175 33.625842-38.440497 37.241182-44.641733 4.514827-7.780197 13.766538-29.572526 20.836561-56.637951 11.753695-1.390673 22.409382-23.159466 30.249955-47.145763 8.403391-25.814945 2.038426-48.418756-9.892301-52.582589 8.163937-34.235732 15.029298-90.057085-4.981455-134.071532-9.070586-19.962657 11.824303-60.148915-26.062586-103.957677-32.476669 48.750307-128.373763-29.17446-202.303542 8.133238-30.446429 15.364943-43.132356 38.150902-47.702442 60.405765-24.356734 19.6045-30.315446 44.503587-33.545 59.777455-8.388041 39.743166-9.673313 74.665537 1.211595 110.946858-10.018168 6.540973-14.688537 27.675316-6.982018 51.348482 7.823176 23.986297 18.494213 45.744857 30.232558 47.145763 7.070023 27.065426 16.33913 48.858778 20.853957 56.637951 3.844561 6.625908 20.707624 30.918173 41.085744 48.024783l0.858554 0c-0.032746 13.368472-0.896416 41.74373-2.712785 55.68423-8.927323 68.400856-237.098 99.301633-272.418436 138.672316-19.059078 21.239743-70.035076 209.16788-80.750115 253.195629L938.561096 956.672592z" p-id="2624"></path></svg>