<?xml version="1.0" standalone="no"?><!DOCTYPE svg PUBLIC "-//W3C//DTD SVG 1.1//EN" "http://www.w3.org/Graphics/SVG/1.1/DTD/svg11.dtd"><svg t="1539159657741" class="icon" style="" viewBox="0 0 1024 1024" version="1.1" xmlns="http://www.w3.org/2000/svg" p-id="2614" xmlns:xlink="http://www.w3.org/1999/xlink" width="32" height="32"><defs><style type="text/css"></style></defs><path d="M814.442 1023.653H209.557c-71.944 0-130.476-58.532-130.476-130.484V288.284c0-71.952 58.532-130.484 130.476-130.484h114.428v78.927H209.557c-28.427 0-51.55 23.13-51.55 51.557v604.885c0 28.427 23.123 51.558 51.55 51.558h604.885c28.427 0 51.55-23.131 51.55-51.558V288.284c0-28.427-23.123-51.557-51.55-51.557H703.497V157.8h110.945c71.944 0 130.476 58.532 130.476 130.484v604.885c0 71.952-58.531 130.484-130.476 130.484z m-81.377-701.94h-442.13V61.191h88.33C401.758 24.85 452.336 0.347 512.009 0.347c59.658 0 110.236 24.503 132.742 60.845h88.316v260.52z m-363.203-78.928h284.275V140.118h-72.622l-3.175-35.995c-0.57-6.39-24.248-24.85-66.333-24.85-42.1 0-65.762 18.453-66.333 24.835l-3.16 36.01h-72.652v102.667z m349.59 263.457H304.548c-21.797 0-39.464-17.667-39.464-39.464s17.667-39.464 39.464-39.464h414.906c21.797 0 39.464 17.667 39.464 39.464s-17.667 39.464-39.464 39.464z m0 158.902H304.548c-21.797 0-39.464-17.666-39.464-39.464s17.667-39.464 39.464-39.464h414.906c21.797 0 39.464 17.667 39.464 39.464s-17.667 39.464-39.464 39.464z m0 158.895H304.548c-21.797 0-39.464-17.667-39.464-39.464s17.667-39.464 39.464-39.464h414.906c21.797 0 39.464 17.667 39.464 39.464s-17.667 39.464-39.464 39.464z" fill="#26a2ff" p-id="2615"></path></svg>