<?xml version="1.0" standalone="no"?><!DOCTYPE svg PUBLIC "-//W3C//DTD SVG 1.1//EN" "http://www.w3.org/Graphics/SVG/1.1/DTD/svg11.dtd"><svg t="1502269527636" class="icon" style="" viewBox="0 0 1024 1024" version="1.1" xmlns="http://www.w3.org/2000/svg" p-id="1968" xmlns:xlink="http://www.w3.org/1999/xlink" width="200" height="200"><defs><style type="text/css"></style></defs><path d="M512 120c216.1 0 392 175.9 392 392S728.1 904 512 904 120 728.1 120 512s175.9-392 392-392m0-56C264.6 64 64 264.6 64 512s200.6 448 448 448 448-200.6 448-448S759.4 64 512 64z" p-id="1969"></path><path d="M512 288c72.6 0 131.7 58.7 131.7 130.9 0 45.9-24.2 87.7-64.6 111.8-18.2 10.8-28.7 30.9-27.3 52 1.5 21.1 14.7 39.6 34.2 47.8 76.6 32.2 132.2 111.2 146.9 205.8-65.4 44.4-141.3 67.7-221.2 67.7-79.7 0-155.3-23.2-220.7-67.5 14.6-94.8 70.2-173.9 146.9-206.1 19.5-8.2 32.7-26.7 34.2-47.8 1.5-21.1-9.1-41.2-27.3-52-40.5-24.1-64.6-65.8-64.6-111.8 0.1-72.1 59.2-130.8 131.8-130.8m0-56c-103.7 0-187.7 83.7-187.7 186.9 0 68.2 37.1 127.3 92 159.9-102.2 43-176.2 152.7-184.3 283.8 76.8 60.8 173.9 97.4 279.7 97.4 106 0 203.3-36.7 280.3-97.8-8.2-130.9-82.1-240.5-184.3-283.4 54.9-32.6 92-91.7 92-159.9 0.1-103.2-84-186.9-187.7-186.9z" p-id="1970"></path></svg>